<?xml version="1.0" encoding="UTF-8" standalone="no"?>
<!-- Created with Inkscape (http://www.inkscape.org/) -->

<svg width="1125" height="2436" viewBox="0 0 297.65625 644.52499" version="1.1" id="svg5" inkscape:version="1.1 (ce6663b3b7, 2021-05-25)" sodipodi:docname="iphonex_splash.svg" xmlns:inkscape="http://www.inkscape.org/namespaces/inkscape" xmlns:sodipodi="http://sodipodi.sourceforge.net/DTD/sodipodi-0.dtd" xmlns="http://www.w3.org/2000/svg" xmlns:svg="http://www.w3.org/2000/svg">
  <sodipodi:namedview id="namedview7" pagecolor="#ffffff" bordercolor="#666666" borderopacity="1.0" inkscape:pageshadow="2" inkscape:pageopacity="0.0" inkscape:pagecheckerboard="0" inkscape:document-units="px" showgrid="false" inkscape:zoom="0.15872271" inkscape:cx="469.37202" inkscape:cy="1382.9149" inkscape:window-width="1366" inkscape:window-height="704" inkscape:window-x="0" inkscape:window-y="27" inkscape:window-maximized="1" inkscape:current-layer="layer1" />
  <defs id="defs2" />
  <g inkscape:label="Layer 1" inkscape:groupmode="layer" id="layer1">
    <g id="g842" transform="matrix(0.23612253,0,0,0.23612253,63.61733,97.183862)" style="stroke-width:1.12053">
      <path fill="#324fff" d="M 0,360.87532 V 721.75064 A 317.11919,317.11919 0 0 0 180.43766,541.31298 Z" id="path1049" style="stroke-width:1.12053" />
      <path fill="#283198" d="m 180.43766,541.31298 c 25.71237,123.1487 23.90799,212.01425 0,360.87532 L 0,721.75064 Z" id="path1051" style="stroke-width:1.12053" />
      <path fill="#00ffff" d="M 180.43766,541.31298 V 902.1883 L 360.87532,721.75064 A 676.19013,676.19013 0 0 0 180.43766,541.31298 Z" id="path1053" style="stroke-width:1.12053" />
      <path fill="#324fff" d="m 360.87532,0 v 360.87532 c 0,0 -142.99685,-109.61588 -180.43766,-180.43766 z" id="path1055" style="stroke-width:1.12053" />
      <path fill="#324fff" d="M 180.43766,180.43766 V 541.31298 A 382.52784,382.52784 0 0 0 360.87532,360.87532 Z" id="path1057" style="stroke-width:1.12053" />
      <path fill="#00e8ff" d="m 360.87532,360.87532 a 820.99135,820.99135 0 0 1 0,360.87532 L 180.43766,541.31298 Z" id="path1059" style="stroke-width:1.12053" />
      <path fill="#283198" d="M 360.87532,360.87532 V 721.75064 C 437.56133,687.91858 502.96998,636.04275 541.31298,541.31298 514.69843,464.62697 459.66494,401.92489 360.87532,360.87532 Z" id="path1061" style="stroke-width:1.12053" />
      <path fill="#283198" d="M 541.31298,180.43766 V 541.31298 L 360.87532,360.87532 Z" id="path1063" style="stroke-width:1.12053" />
      <path fill="#00e8ff" d="m 541.31298,541.31298 c 27.51674,121.79542 22.10361,241.78646 0,360.87532 L 360.87532,721.75064 Z" id="path1065" style="stroke-width:1.12053" />
      <path fill="#324fff" d="M 541.31298,541.31298 V 902.1883 L 721.75064,721.75064 C 697.39156,654.08652 639.20041,595.89537 541.31298,541.31298 Z" id="path1067" style="stroke-width:1.12053" />
      <path fill="#324fff" d="M 721.75064,360.87532 V 721.75064 L 541.31298,541.31298 Z" id="path1069" style="stroke-width:1.12053" />
    </g>
    <text xml:space="preserve" style="font-size:46.2139px;line-height:125%;font-family:sans-serif;letter-spacing:0px;word-spacing:0px;fill:#000000;fill-opacity:1;stroke:none;stroke-width:0.264583px;stroke-linecap:butt;stroke-linejoin:miter;stroke-opacity:1" x="105.22053" y="470.94162" id="text3009"><tspan sodipodi:role="line" id="tspan3007" style="font-size:46.2139px;fill:#000000;fill-opacity:1;stroke:none;stroke-width:0.264583px" x="105.22053" y="470.94162">Lite</tspan></text>
    <text xml:space="preserve" style="font-size:20.1083px;line-height:125%;font-family:sans-serif;letter-spacing:0px;word-spacing:0px;fill:#000000;fill-opacity:1;stroke:none;stroke-width:0.264583px;stroke-linecap:butt;stroke-linejoin:miter;stroke-opacity:1" x="117.66418" y="503.22134" id="text7478"><tspan sodipodi:role="line" id="tspan7476" style="font-size:20.1083px;fill:#000000;fill-opacity:1;stroke:none;stroke-width:0.264583px" x="117.66418" y="503.22134">v1.0.0</tspan></text>
  </g>
</svg>
