<?xml version="1.0" encoding="UTF-8" standalone="no"?>
<svg viewBox="0 0 1024 1024" version="1.1" id="svg1071" sodipodi:docname="lite.svg" width="1024" height="1024" inkscape:version="1.1 (ce6663b3b7, 2021-05-25)" xmlns:inkscape="http://www.inkscape.org/namespaces/inkscape" xmlns:sodipodi="http://sodipodi.sourceforge.net/DTD/sodipodi-0.dtd" xmlns="http://www.w3.org/2000/svg" xmlns:svg="http://www.w3.org/2000/svg">
  <defs id="defs1075" />
  <sodipodi:namedview id="namedview1073" pagecolor="#ffffff" bordercolor="#666666" borderopacity="1.0" objecttolerance="10.0" gridtolerance="10.0" guidetolerance="10.0" inkscape:pageshadow="2" inkscape:pageopacity="0.0" inkscape:pagecheckerboard="0" showgrid="false" inkscape:zoom="0.30625" inkscape:cx="546.93877" inkscape:cy="520.81632" inkscape:window-width="1366" inkscape:window-height="704" inkscape:window-x="0" inkscape:window-y="27" inkscape:window-maximized="1" inkscape:current-layer="svg1071" width="1024px" />
  <view id="flame" viewBox="0 0 160 200" />
  <view id="name" viewBox="240 78 185 122" />
  <g id="g842" transform="translate(151.12468,60.90585)">
    <path fill="#324fff" d="M 0,360.87532 V 721.75064 A 317.11919,317.11919 0 0 0 180.43766,541.31298 Z" id="path1049" style="stroke-width:0.999999" />
    <path fill="#283198" d="m 180.43766,541.31298 c 25.71237,123.1487 23.90799,212.01425 0,360.87532 L 0,721.75064 Z" id="path1051" style="stroke-width:0.999999" />
    <path fill="#00ffff" d="M 180.43766,541.31298 V 902.1883 L 360.87532,721.75064 A 676.19013,676.19013 0 0 0 180.43766,541.31298 Z" id="path1053" style="stroke-width:0.999999" />
    <path fill="#324fff" d="m 360.87532,0 v 360.87532 c 0,0 -142.99685,-109.61588 -180.43766,-180.43766 z" id="path1055" style="stroke-width:0.999999" />
    <path fill="#324fff" d="M 180.43766,180.43766 V 541.31298 A 382.52784,382.52784 0 0 0 360.87532,360.87532 Z" id="path1057" style="stroke-width:0.999999" />
    <path fill="#00e8ff" d="m 360.87532,360.87532 a 820.99135,820.99135 0 0 1 0,360.87532 L 180.43766,541.31298 Z" id="path1059" style="stroke-width:0.999999" />
    <path fill="#283198" d="M 360.87532,360.87532 V 721.75064 C 437.56133,687.91858 502.96998,636.04275 541.31298,541.31298 514.69843,464.62697 459.66494,401.92489 360.87532,360.87532 Z" id="path1061" style="stroke-width:0.999999" />
    <path fill="#283198" d="M 541.31298,180.43766 V 541.31298 L 360.87532,360.87532 Z" id="path1063" style="stroke-width:0.999999" />
    <path fill="#00e8ff" d="m 541.31298,541.31298 c 27.51674,121.79542 22.10361,241.78646 0,360.87532 L 360.87532,721.75064 Z" id="path1065" style="stroke-width:0.999999" />
    <path fill="#324fff" d="M 541.31298,541.31298 V 902.1883 L 721.75064,721.75064 C 697.39156,654.08652 639.20041,595.89537 541.31298,541.31298 Z" id="path1067" style="stroke-width:0.999999" />
    <path fill="#324fff" d="M 721.75064,360.87532 V 721.75064 L 541.31298,541.31298 Z" id="path1069" style="stroke-width:0.999999" />
  </g>
</svg>
